# xmcd CD database file
#
# Track frame offsets:
#	150
#	18871
#	32319
#	43221
#	62410
#	79454
#	100309
#	115768
#
# Disc length: 1809 seconds
#
# Revision: 0
# Processed by: cddbd v1.5PL3 Copyright (c) Steve Scherf et al.
# Submitted via: CDex 1.50
#
DISCID=5a070f08
DTITLE=Johnny Frigo - Rennaissance Man
DYEAR=1985
DGENRE=Jazz
TTITLE0=Apogee
TTITLE1=Yours is My Heart Alone
TTITLE2=Bow Jest
TTITLE3=Yesterdays-Yesterday
TTITLE4=Back Home Again in Indiana
TTITLE5=A Touch of Saks
TTITLE6=Detour Ahead
TTITLE7=Bluesette Alla Strauss
EXTD=YEAR: 1985
EXTT0=
EXTT1=
EXTT2=
EXTT3=
EXTT4=
EXTT5=
EXTT6=
EXTT7=
PLAYORDER=
